<svg xmlns="http://www.w3.org/2000/svg" xmlns:xlink="http://www.w3.org/1999/xlink"><symbol id="icon-check" viewBox="0 0 22 22">
<path fill-rule="evenodd" clip-rule="evenodd" d="M17.6138 5.21059C18.0498 5.54958 18.1285 6.17784 17.7895 6.61385L10.0145 16.6138C9.84138 16.8365 9.58223 16.9758 9.30094 16.9972C9.01966 17.0186 8.74242 16.9202 8.53757 16.7262L4.3125 12.7262C3.91144 12.3465 3.89412 11.7136 4.27382 11.3126C4.65351 10.9115 5.28644 10.8942 5.6875 11.2739L9.11216 14.5161L16.2105 5.38625C16.5495 4.95024 17.1778 4.87159 17.6138 5.21059Z"/>
</symbol><symbol id="icon-envelope"><path d="M24.227 0H1.773C.768 0 0 .765 0 1.765v16.47C0 19.235.768 20 1.773 20h22.454C25.232 20 26 19.235 26 18.235V1.765C26 .765 25.232 0 24.227 0zm0 17l-4.668-4.647a.86.86 0 00-1.24 0 .85.85 0 000 1.235l4.667 4.647H3.014l4.668-4.647a.85.85 0 000-1.235.86.86 0 00-1.241 0L1.773 17V5.706l10.636 8a.955.955 0 00.532.176.955.955 0 00.532-.176l10.754-8V17zm0-15.235V3.47l-11.286 8.352L1.773 3.471V1.765h22.454z" fill="#D7D9DF"/></symbol><symbol id="icon-phone"><path d="M1.396 6.624c-.084-1.198.181-2.378.885-3.327.61-.86 1.404-1.33 2.361-1.605.807-.24 1.335.054 1.568.95.332 1.34.806 2.68.978 4.092.054.62-.347 1.5-.782 1.952-1.09 1.073-.864 1.854-.036 3.478.256.524.664 1.43 1.458 2.628.828 1.207 1.266 1.855 2.329 1.306 1.18-.594 2.041-.212 2.932.746.604.693 1.268 1.288 1.872 1.98.873 1.03.834 1.74.151 2.467-1.229 1.34-3.258 1.783-4.768.886-.834-.489-1.664-1.128-2.325-1.874-2.915-3.32-5.016-7.182-6.282-11.54a10.989 10.989 0 01-.34-2.139z" stroke-width="2" stroke-miterlimit="10"/></symbol></svg>